<svg id="Capa_1" data-name="Capa 1" xmlns="http://www.w3.org/2000/svg" viewBox="0 0 1080 1080"><defs><style>.cls-1{fill:#00a950;}.cls-2{fill:#68492f;}</style></defs><title>isologo futuro cierto</title><path class="cls-1" d="M536.69,832.62V780.68L415.05,663.34h0c-5.23-5.3-16.54-17.49-22.18-22.31-20.27-17.33-14.66-37.38,5.35-56.11,38.95-36.45,75.9-75.08,113-113.5,39-40.41,44.53-68.83,14.77-101.37-31.09-34-79.2-33.92-119.61,2.55-35.76,32.29-72.93,64-103.34,101-32.79,39.87-56.95,32.59-83.11-3.32-10.07-13.81-21.24-27.24-28.76-42.4-27-54.51-10.3-111,45.81-159.89,44.51-38.8,91.46-43.55,140.74-5.43,10.63,8.22,20.46,17.43,20.46,17.43L510.47,172.38s-8-10.16-17-16.63c-55.79-40.11-115.7-68-185.77-69-29.86-1-58.22,5.08-86,15.65C12.33,182.07-42.6,415.8,116.61,587.26c81.48,87.76,168.93,170,256.62,252h0l135,128a39.06,39.06,0,0,0,5.09,4.83l23.37,22.14V904.44C538.12,874.54,538.55,851.71,536.69,832.62Z"/><path class="cls-2" d="M966.22,169.73c-94.49-94-217.47-110-331.33-43-38.58,22.68-59.49,47.58-59.49,47.58L677.64,281.83s12.56-10.38,25.81-19.8c65.68-46.69,116.09-34.8,169.77,31.49,47.53,58.69,47.33,119.13-5.22,171.37-69.43,69-314,317.54-314,317.54l-3.93,211.72.14-.13v.13q15.56-15.09,30.86-29.95l132.46-128-.13-.53c60.3-58.55,119-115.45,177.79-172.19,46.3-44.67,93.67-86.9,126.27-144.87C1085.8,397.15,1069.71,272.66,966.22,169.73Z"/></svg>